<svg xmlns="http://www.w3.org/2000/svg" width="200" height="200" viewBox="0 0 200 200">
  <g fill="none" stroke="#D4AF37" stroke-width="2.5" stroke-linecap="round" stroke-linejoin="round">
    <!-- Heart outline -->
    <path d="M100 155 
             C 75 135, 45 115, 45 85
             C 45 65, 55 50, 72 50
             C 85 50, 94 58, 100 68
             C 106 58, 115 50, 128 50
             C 145 50, 155 65, 155 85
             C 155 115, 125 135, 100 155 Z"
          fill="none"/>
    
    <!-- Inner broken heart line -->
    <path d="M100 68 L100 130" stroke-width="2" stroke-dasharray="8,4" opacity="0.4"/>
    
    <!-- Sparkles around heart -->
    <g opacity="0.6">
      <path d="M65 70 L67 72 L65 74 L63 72 Z" fill="#D4AF37"/>
      <path d="M135 70 L137 72 L135 74 L133 72 Z" fill="#D4AF37"/>
      <path d="M80 45 L82 47 L80 49 L78 47 Z" fill="#D4AF37"/>
      <path d="M120 45 L122 47 L120 49 L118 47 Z" fill="#D4AF37"/>
    </g>
  </g>
  
  <text x="100" y="180" font-family="Arial, sans-serif" font-size="14" fill="#D4AF37" text-anchor="middle" opacity="0.7">Sevimlilar yo'q</text>
</svg>