<svg xmlns="http://www.w3.org/2000/svg" viewBox="0 0 48 48">
  <path fill="currentColor" d="M12.5 38q-1.9 0-3.2-1.325T8 33.5q0-1.9 1.3-3.2T12.5 29q.55 0 1.05.1t.95.3V14h10v3h-7v16.5q0 1.9-1.3 3.2t-3.2 1.3ZM24 25q-1.05 0-1.775-.725Q21.5 23.55 21.5 22.5V10q0-.425.3-.713.3-.287.7-.287h3V6.25q0-.55.45-.9t.95-.35q.55 0 .9.35t.35.9V9h3q.4 0 .7.287.3.288.3.713v12.5q0 1.05-.725 1.775Q30.7 25 29.65 25ZM27 6.25q0 .35-.225.575-.225.225-.575.225-.35 0-.575-.225-.225-.225-.225-.575 0-.35.225-.575.225-.225.575-.225.35 0 .575.225.225.225.225.575ZM14.5 38h8.75q1.4 0 2.325-.925.925-.925.925-2.325V38q0 1.4-.925 2.325-.925.925-2.325.925h-8.75v3q0 .4-.3.7-.3.3-.7.3-.4 0-.7-.3-.3-.3-.3-.7V33.5q0-.4.3-.7.3-.3.7-.3.4 0 .7.3.3.3.3.7Z"/>
</svg>
