<svg xmlns="http://www.w3.org/2000/svg" viewBox="0 0 24 24" fill="none">
  <path d="M19 14C20.49 14 21.87 14.3 23.14 14.88C23.68 15.13 24 15.68 24 16.27V18.38C24 18.79 23.79 19.17 23.43 19.38C21.85 20.37 19.86 21 17.5 21C15.14 21 13.15 20.37 11.57 19.38C11.21 19.17 11 18.79 11 18.38V16.27C11 15.68 11.32 15.13 11.86 14.88C13.13 14.3 14.51 14 16 14" stroke="currentColor" stroke-width="2"/>
  <circle cx="17.5" cy="8" r="4" stroke="currentColor" stroke-width="2"/>
  <path d="M11 14.17V7C11 5.89543 10.1046 5 9 5H3C1.89543 5 1 5.89543 1 7V17C1 18.1046 1.89543 19 3 19H9.17" stroke="currentColor" stroke-width="2" stroke-linecap="round"/>
  <path d="M1 9H11" stroke="currentColor" stroke-width="2"/>
</svg>
