<svg xmlns="http://www.w3.org/2000/svg" viewBox="0 0 48 48">
  <path fill="currentColor" d="M11 44q-1.25 0-2.125-.875T8 41V13q0-1.25.875-2.125T11 10h1V7q0-1.25.875-2.125T15 4h18q1.25 0 2.125.875T36 7v3h1q1.25 0 2.125.875T40 13v28q0 1.25-.875 2.125T37 44Zm4-34h18V7H15ZM11 41h26V13H11v28Zm5.5-7q.65 0 1.075-.425Q18 33.15 18 32.5v-3q0-.65-.425-1.075Q17.15 28 16.5 28q-.65 0-1.075.425Q15 28.85 15 29.5v3q0 .65.425 1.075Q15.85 34 16.5 34Zm15 0q.65 0 1.075-.425Q33 33.15 33 32.5v-3q0-.65-.425-1.075Q32.15 28 31.5 28q-.65 0-1.075.425Q30 28.85 30 29.5v3q0 .65.425 1.075Q30.85 34 31.5 34ZM24 27.5q2.3 0 3.9-1.6t1.6-3.9q0-2.3-1.6-3.9T24 16.5q-2.3 0-3.9 1.6t-1.6 3.9q0 2.3 1.6 3.9t3.9 1.6Zm0-3q-1.05 0-1.775-.725Q21.5 23.05 21.5 22q0-1.05.725-1.775Q22.95 19.5 24 19.5q1.05 0 1.775.725.725.725.725 1.775 0 1.05-.725 1.775Q25.05 24.5 24 24.5Z"/>
</svg>
