<svg xmlns="http://www.w3.org/2000/svg" viewBox="0 0 48 48">
  <path fill="currentColor" d="M8 40q-1.25 0-2.125-.875T5 37V15q0-1.25.875-2.125T8 12h6v-2q0-2.925 2.038-4.962Q18.075 3 21 3h6q2.925 0 4.962 2.038Q34 7.075 34 10v2h6q1.25 0 2.125.875T43 15v22q0 1.25-.875 2.125T40 40Zm0-3h32V15h-6v4.5q0 .65-.425 1.075Q33.15 21 32.5 21q-.65 0-1.075-.425Q31 20.15 31 19.5V15H17v4.5q0 .65-.425 1.075Q16.15 21 15.5 21q-.65 0-1.075-.425Q14 20.15 14 19.5V15H8Zm9-25h14v-2q0-1.65-1.175-2.825Q28.65 6 27 6h-6q-1.65 0-2.825 1.175Q17 8.35 17 10ZM8 37V15v22Z"/>
</svg>
